# xmcd
#
# Track frame offsets:
#	187
#	16012
#	26737
#	41362
#	52462
#	65737
#	74812
#	86812
#	97162
#	111862
#	121762
#	135487
#	147862
#	158737
#	171187
#	182437
#
# Disc length: 2560 seconds
#
# Revision: 1
# Processed by: cddbd v1.5.1PL2 Copyright (c) Steve Scherf et al.
# Submitted via: audiograbber 1.83.01
#
DISCID=e509fe10
DTITLE=Varios - The Best Beat
DYEAR=1900
DGENRE=Pop
TTITLE0=The Fortunes - You've Got Your Troubles
TTITLE1=Freddie and The Dreamers - You Were Made For Me
TTITLE2=Marmalade - Ob La Di Ob La Da
TTITLE3=Wayne Fontana - The Game Of Love
TTITLE4=Herman's Hermits - No Milk Today
TTITLE5=The Fourmost - Hello Little Girl
TTITLE6=The Foundations - baby, Now That I've Found You
TTITLE7=Gerry and The Pacemakers - I Like It
TTITLE8=The Tremeloes - Silent Is Golden
TTITLE9=Billy J. Kramer - Do You Want To Know A Secret
TTITLE10=Vanity Fayre - Bitchin' A Ride
TTITLE11=Nashville Teens - Tobacco Road
TTITLE12=Unit Four Plus Two - Concrete And Clay
TTITLE13=The Merseybeats - Wishin' And Hopin'
TTITLE14=Gerry and The Pacemakers - You'll Never Walk Alone
TTITLE15=The Swinging Blue Jeans - The Hippy Hippy Shake
EXTD=
EXTT0=
EXTT1=
EXTT2=
EXTT3=
EXTT4=
EXTT5=
EXTT6=
EXTT7=
EXTT8=
EXTT9=
EXTT10=
EXTT11=
EXTT12=
EXTT13=
EXTT14=
EXTT15=
PLAYORDER=
